<svg width="150" height="150" viewBox="0 0 150 150" fill="none" xmlns="http://www.w3.org/2000/svg">
<g id="icons8-calculator 1">
<path id="Vector" d="M42 12C25.466 12 12 25.466 12 42V108C12 124.534 25.466 138 42 138H108C124.534 138 138 124.534 138 108V42C138 25.466 124.534 12 108 12H42ZM42 18H108C121.292 18 132 28.708 132 42V108C132 121.292 121.292 132 108 132H42C28.708 132 18 121.292 18 108V42C18 28.708 28.708 18 42 18ZM54 27C45.7514 27 39 33.7514 39 42V108C39 116.249 45.7514 123 54 123H96C104.249 123 111 116.249 111 108V42C111 33.7514 104.249 27 96 27H54ZM54 33H96C101.005 33 105 36.9946 105 42V108C105 113.005 101.005 117 96 117H54C48.9946 117 45 113.005 45 108V42C45 36.9946 48.9946 33 54 33ZM54 39C52.344 39 51 40.344 51 42V54C51 55.656 52.344 57 54 57H96C97.656 57 99 55.656 99 54V42C99 40.344 97.656 39 96 39H54ZM57 63C53.6863 63 51 65.6863 51 69C51 72.3137 53.6863 75 57 75C60.3137 75 63 72.3137 63 69C63 65.6863 60.3137 63 57 63ZM75 63C71.6863 63 69 65.6863 69 69C69 72.3137 71.6863 75 75 75C78.3137 75 81 72.3137 81 69C81 65.6863 78.3137 63 75 63ZM93 63C89.6863 63 87 65.6863 87 69C87 72.3137 89.6863 75 93 75C96.3137 75 99 72.3137 99 69C99 65.6863 96.3137 63 93 63ZM57 81C53.6863 81 51 83.6863 51 87C51 90.3137 53.6863 93 57 93C60.3137 93 63 90.3137 63 87C63 83.6863 60.3137 81 57 81ZM75 81C71.6863 81 69 83.6863 69 87C69 90.3137 71.6863 93 75 93C78.3137 93 81 90.3137 81 87C81 83.6863 78.3137 81 75 81ZM93 81C89.6863 81 87 83.6863 87 87C87 90.3137 89.6863 93 93 93C96.3137 93 99 90.3137 99 87C99 83.6863 96.3137 81 93 81ZM57 99C53.685 99 51 101.685 51 105C51 108.315 53.685 111 57 111H75C78.315 111 81 108.315 81 105C81 101.685 78.315 99 75 99H57ZM93 99C89.6863 99 87 101.686 87 105C87 108.314 89.6863 111 93 111C96.3137 111 99 108.314 99 105C99 101.686 96.3137 99 93 99Z" fill="#F96932"/>
</g>
</svg>
